# xmcd
#
# Track frame offsets: 
#        150
#        8684
#        30017
#        49216
#        72556
#        95192
#        118469
#        137285
#        152331
#        170080
#        185217
#
# Disc length: 2625 seconds
#
# Revision: 1
# Processed by: cddbd v1.5.2PL0 Copyright (c) Steve Scherf et al.
# Submitted via: ExactAudioCopyFreeDBPlugin 1.0
#
DISCID=940a3f0b
DTITLE=Maire Rytham - Cecilia - Voice of the fiminine Spirit
DYEAR=2002
DGENRE=Celtic Folk
TTITLE0=Solveig's Song, 1st Verse
TTITLE1=The Sacred Hum
TTITLE2=Love of a Silent Moon
TTITLE3=Two Swans Matched in Flight
TTITLE4=Doughter of the Midnight Sun
TTITLE5=Amazing Grace (Prayer to the Whales)
TTITLE6=Silver Wings
TTITLE7=The Lion and the Unicorn
TTITLE8=The Eternal Heartbeat
TTITLE9=Unite the Tribe
TTITLE10=Solveig's Song, 1st Verse
EXTD=YEAR: 2002
EXTT0=
EXTT1=
EXTT2=
EXTT3=
EXTT4=
EXTT5=
EXTT6=
EXTT7=
EXTT8=
EXTT9=
EXTT10=
PLAYORDER=
